<svg xmlns="http://www.w3.org/2000/svg" xmlns:xlink="http://www.w3.org/1999/xlink" preserveAspectRatio="xMidYMid" width="741" height="687" viewBox="0 0 741 687">
  <defs>
    <style>
      .cls-1, .cls-2 {
        fill: #fff;
      }

      .cls-1 {
        fill-rule: evenodd;
      }
    </style>
  </defs>
  <g>
    <path d="M15.000,296.550 L24.281,296.550 C32.565,296.550 39.281,303.265 39.281,311.550 L39.281,374.380 C39.281,382.665 32.565,389.380 24.281,389.380 L15.000,389.380 C6.716,389.380 0.000,382.665 0.000,374.380 L0.000,311.550 C0.000,303.265 6.716,296.550 15.000,296.550 Z" class="cls-1"/>
    <path d="M84.687,255.518 L93.969,255.518 C102.253,255.518 108.969,262.234 108.969,270.518 L108.969,417.552 C108.969,425.836 102.253,432.552 93.969,432.552 L84.687,432.552 C76.403,432.552 69.688,425.836 69.688,417.552 L69.688,270.518 C69.688,262.234 76.403,255.518 84.687,255.518 Z" class="cls-1"/>
    <path d="M154.594,297.486 L163.937,297.486 C172.222,297.486 178.937,304.202 178.937,312.486 L178.937,376.654 C178.937,384.938 172.222,391.654 163.937,391.654 L154.594,391.654 C146.310,391.654 139.594,384.938 139.594,376.654 L139.594,312.486 C139.594,304.202 146.310,297.486 154.594,297.486 Z" class="cls-1"/>
    <path d="M224.750,255.752 L234.062,255.752 C242.347,255.752 249.063,262.468 249.063,270.752 L249.063,417.318 C249.063,425.602 242.347,432.318 234.062,432.318 L224.750,432.318 C216.466,432.318 209.750,425.602 209.750,417.318 L209.750,270.752 C209.750,262.468 216.466,255.752 224.750,255.752 Z" class="cls-1"/>
    <path d="M295.188,112.360 L304.531,112.360 C312.815,112.360 319.531,119.076 319.531,127.360 L319.531,561.780 C319.531,570.065 312.815,576.780 304.531,576.780 L295.188,576.780 C286.903,576.780 280.188,570.065 280.188,561.780 L280.188,127.360 C280.188,119.076 286.903,112.360 295.188,112.360 Z" class="cls-1"/>
    <rect x="350.344" width="39.312" height="687" rx="15" ry="15" class="cls-2"/>
    <path d="M435.469,298.556 L444.812,298.556 C453.097,298.556 459.812,305.272 459.812,313.556 L459.812,376.654 C459.812,384.938 453.097,391.654 444.812,391.654 L435.469,391.654 C427.185,391.654 420.469,384.938 420.469,376.654 L420.469,313.556 C420.469,305.272 427.185,298.556 435.469,298.556 Z" class="cls-1"/>
    <path d="M505.938,184.056 L515.250,184.056 C523.534,184.056 530.250,190.772 530.250,199.056 L530.250,489.014 C530.250,497.298 523.534,504.014 515.250,504.014 L505.938,504.014 C497.653,504.014 490.937,497.298 490.937,489.014 L490.937,199.056 C490.937,190.772 497.653,184.056 505.938,184.056 Z" class="cls-1"/>
    <path d="M576.063,97.378 L585.406,97.378 C593.690,97.378 600.406,104.094 600.406,112.378 L600.406,573.551 C600.406,581.836 593.690,588.551 585.406,588.551 L576.063,588.551 C567.778,588.551 561.063,581.836 561.063,573.551 L561.063,112.378 C561.063,104.094 567.778,97.378 576.063,97.378 Z" class="cls-1"/>
    <path d="M646.531,230.070 L655.844,230.070 C664.128,230.070 670.844,236.786 670.844,245.070 L670.844,446.210 C670.844,454.495 664.128,461.210 655.844,461.210 L646.531,461.210 C638.247,461.210 631.531,454.495 631.531,446.210 L631.531,245.070 C631.531,236.786 638.247,230.070 646.531,230.070 Z" class="cls-1"/>
    <path d="M716.719,297.620 L726.000,297.620 C734.284,297.620 741.000,304.335 741.000,312.620 L741.000,375.450 C741.000,383.735 734.284,390.450 726.000,390.450 L716.719,390.450 C708.435,390.450 701.719,383.735 701.719,375.450 L701.719,312.620 C701.719,304.335 708.435,297.620 716.719,297.620 Z" class="cls-1"/>
  </g>
</svg>
